<svg width="78" height="78" viewBox="0 0 78 78" fill="none" xmlns="http://www.w3.org/2000/svg">
<rect width="8" height="8" transform="matrix(-4.37114e-08 -1 -1 4.37114e-08 78 38)" fill="#00933C"/>
<rect width="8" height="8" transform="matrix(-4.37114e-08 -1 -1 4.37114e-08 78 28)" fill="#00933C"/>
<rect width="8" height="8" transform="matrix(-4.37114e-08 -1 -1 4.37114e-08 68 38)" fill="#00933C"/>
<rect width="8" height="8" transform="matrix(-4.37114e-08 -1 -1 4.37114e-08 68 28)" fill="#00933C"/>
<rect width="8" height="8" transform="matrix(-4.37114e-08 -1 -1 4.37114e-08 58 58)" fill="#00933C"/>
<rect width="8" height="8" transform="matrix(-4.37114e-08 -1 -1 4.37114e-08 58 48)" fill="#00933C"/>
<rect width="8" height="8" transform="matrix(-4.37114e-08 -1 -1 4.37114e-08 58 18)" fill="#00933C"/>
<rect width="8" height="8" transform="matrix(-4.37114e-08 -1 -1 4.37114e-08 58 8)" fill="#00933C"/>
<rect width="8" height="8" transform="matrix(-4.37114e-08 -1 -1 4.37114e-08 48 58)" fill="#00933C"/>
<rect width="8" height="8" transform="matrix(-4.37114e-08 -1 -1 4.37114e-08 48 48)" fill="#00933C"/>
<rect width="8" height="8" transform="matrix(-4.37114e-08 -1 -1 4.37114e-08 48 18)" fill="#00933C"/>
<rect width="8" height="8" transform="matrix(-4.37114e-08 -1 -1 4.37114e-08 48 8)" fill="#00933C"/>
<rect width="8" height="8" transform="matrix(-4.37114e-08 -1 -1 4.37114e-08 38 78)" fill="#00933C"/>
<rect width="8" height="8" transform="matrix(-4.37114e-08 -1 -1 4.37114e-08 38 68)" fill="#00933C"/>
<rect width="8" height="8" transform="matrix(-4.37114e-08 -1 -1 4.37114e-08 38 38)" fill="#00933C"/>
<rect width="8" height="8" transform="matrix(-4.37114e-08 -1 -1 4.37114e-08 38 28)" fill="#00933C"/>
<rect width="8" height="8" transform="matrix(-4.37114e-08 -1 -1 4.37114e-08 28 78)" fill="#00933C"/>
<rect width="8" height="8" transform="matrix(-4.37114e-08 -1 -1 4.37114e-08 28 68)" fill="#00933C"/>
<rect width="8" height="8" transform="matrix(-4.37114e-08 -1 -1 4.37114e-08 28 38)" fill="#00933C"/>
<rect width="8" height="8" transform="matrix(-4.37114e-08 -1 -1 4.37114e-08 28 28)" fill="#00933C"/>
<rect width="8" height="8" transform="matrix(-4.37114e-08 -1 -1 4.37114e-08 18 58)" fill="#00933C"/>
<rect width="8" height="8" transform="matrix(-4.37114e-08 -1 -1 4.37114e-08 18 48)" fill="#00933C"/>
<rect width="8" height="8" transform="matrix(-4.37114e-08 -1 -1 4.37114e-08 8 58)" fill="#00933C"/>
<rect width="8" height="8" transform="matrix(-4.37114e-08 -1 -1 4.37114e-08 8 48)" fill="#00933C"/>
</svg>
