<svg width="78" height="78" viewBox="0 0 78 78" fill="none" xmlns="http://www.w3.org/2000/svg">
<rect y="78" width="8" height="8" transform="rotate(-90 0 78)" fill="#FCCC0A"/>
<rect y="68" width="8" height="8" transform="rotate(-90 0 68)" fill="#FCCC0A"/>
<rect y="58" width="8" height="8" transform="rotate(-90 0 58)" fill="#FCCC0A"/>
<rect y="48" width="8" height="8" transform="rotate(-90 0 48)" fill="#FCCC0A"/>
<rect y="38" width="8" height="8" transform="rotate(-90 0 38)" fill="#FCCC0A"/>
<rect y="28" width="8" height="8" transform="rotate(-90 0 28)" fill="#FCCC0A"/>
<rect y="18" width="8" height="8" transform="rotate(-90 0 18)" fill="#FCCC0A"/>
<rect y="8" width="8" height="8" transform="rotate(-90 0 8)" fill="#FCCC0A"/>
<rect x="10" y="18" width="8" height="8" transform="rotate(-90 10 18)" fill="#FCCC0A"/>
<rect x="20" y="28" width="8" height="8" transform="rotate(-90 20 28)" fill="#FCCC0A"/>
<rect x="30" y="38" width="8" height="8" transform="rotate(-90 30 38)" fill="#FCCC0A"/>
<rect x="40" y="48" width="8" height="8" transform="rotate(-90 40 48)" fill="#FCCC0A"/>
<rect x="50" y="58" width="8" height="8" transform="rotate(-90 50 58)" fill="#FCCC0A"/>
<rect x="60" y="68" width="8" height="8" transform="rotate(-90 60 68)" fill="#FCCC0A"/>
<rect x="70" y="78" width="8" height="8" transform="rotate(-90 70 78)" fill="#FCCC0A"/>
<rect x="70" y="68" width="8" height="8" transform="rotate(-90 70 68)" fill="#FCCC0A"/>
<rect x="70" y="58" width="8" height="8" transform="rotate(-90 70 58)" fill="#FCCC0A"/>
<rect x="70" y="48" width="8" height="8" transform="rotate(-90 70 48)" fill="#FCCC0A"/>
<rect x="70" y="38" width="8" height="8" transform="rotate(-90 70 38)" fill="#FCCC0A"/>
<rect x="70" y="28" width="8" height="8" transform="rotate(-90 70 28)" fill="#FCCC0A"/>
<rect x="70" y="18" width="8" height="8" transform="rotate(-90 70 18)" fill="#FCCC0A"/>
<rect x="70" y="8" width="8" height="8" transform="rotate(-90 70 8)" fill="#FCCC0A"/>
</svg>
