<svg width="78" height="78" viewBox="0 0 78 78" fill="none" xmlns="http://www.w3.org/2000/svg">
<rect x="68" y="78" width="8" height="8" transform="rotate(-180 68 78)" fill="#FCCC0A"/>
<rect x="18" y="78" width="8" height="8" transform="rotate(-180 18 78)" fill="#FCCC0A"/>
<rect x="78" y="68" width="8" height="8" transform="rotate(-180 78 68)" fill="#FCCC0A"/>
<rect x="58" y="68" width="8" height="8" transform="rotate(-180 58 68)" fill="#FCCC0A"/>
<rect x="28" y="68" width="8" height="8" transform="rotate(-180 28 68)" fill="#FCCC0A"/>
<rect x="8" y="68" width="8" height="8" transform="rotate(-180 8 68)" fill="#FCCC0A"/>
<rect x="78" y="58" width="8" height="8" transform="rotate(-180 78 58)" fill="#FCCC0A"/>
<rect x="58" y="58" width="8" height="8" transform="rotate(-180 58 58)" fill="#FCCC0A"/>
<rect x="28" y="58" width="8" height="8" transform="rotate(-180 28 58)" fill="#FCCC0A"/>
<rect x="8" y="58" width="8" height="8" transform="rotate(-180 8 58)" fill="#FCCC0A"/>
<rect x="78" y="48" width="8" height="8" transform="rotate(-180 78 48)" fill="#FCCC0A"/>
<rect x="58" y="48" width="8" height="8" transform="rotate(-180 58 48)" fill="#FCCC0A"/>
<rect x="28" y="48" width="8" height="8" transform="rotate(-180 28 48)" fill="#FCCC0A"/>
<rect x="8" y="48" width="8" height="8" transform="rotate(-180 8 48)" fill="#FCCC0A"/>
<rect x="78" y="38" width="8" height="8" transform="rotate(-180 78 38)" fill="#FCCC0A"/>
<rect x="48" y="38" width="8" height="8" transform="rotate(-180 48 38)" fill="#FCCC0A"/>
<rect x="38" y="38" width="8" height="8" transform="rotate(-180 38 38)" fill="#FCCC0A"/>
<rect x="8" y="38" width="8" height="8" transform="rotate(-180 8 38)" fill="#FCCC0A"/>
<rect x="78" y="28" width="8" height="8" transform="rotate(-180 78 28)" fill="#FCCC0A"/>
<rect x="8" y="28" width="8" height="8" transform="rotate(-180 8 28)" fill="#FCCC0A"/>
<rect x="78" y="18" width="8" height="8" transform="rotate(-180 78 18)" fill="#FCCC0A"/>
<rect x="8" y="18" width="8" height="8" transform="rotate(-180 8 18)" fill="#FCCC0A"/>
<rect x="78" y="8" width="8" height="8" transform="rotate(-180 78 8)" fill="#FCCC0A"/>
<rect x="8" y="7.99999" width="8" height="8" transform="rotate(-180 8 7.99999)" fill="#FCCC0A"/>
</svg>
