<svg width="78" height="78" viewBox="0 0 78 78" fill="none" xmlns="http://www.w3.org/2000/svg">
<rect width="8" height="8" fill="#996633"/>
<rect x="10" width="8" height="8" fill="#996633"/>
<rect x="20" width="8" height="8" fill="#996633"/>
<rect x="30" width="8" height="8" fill="#996633"/>
<rect x="40" width="8" height="8" fill="#996633"/>
<rect x="50" width="8" height="8" fill="#996633"/>
<rect x="60" width="8" height="8" fill="#996633"/>
<rect x="70" width="8" height="8" fill="#996633"/>
<rect x="60" y="10" width="8" height="8" fill="#996633"/>
<rect x="50" y="20" width="8" height="8" fill="#996633"/>
<rect x="40" y="30" width="8" height="8" fill="#996633"/>
<rect x="30" y="40" width="8" height="8" fill="#996633"/>
<rect x="20" y="50" width="8" height="8" fill="#996633"/>
<rect x="10" y="60" width="8" height="8" fill="#996633"/>
<rect y="70" width="8" height="8" fill="#996633"/>
<rect x="10" y="70" width="8" height="8" fill="#996633"/>
<rect x="20" y="70" width="8" height="8" fill="#996633"/>
<rect x="30" y="70" width="8" height="8" fill="#996633"/>
<rect x="40" y="70" width="8" height="8" fill="#996633"/>
<rect x="50" y="70" width="8" height="8" fill="#996633"/>
<rect x="60" y="70" width="8" height="8" fill="#996633"/>
<rect x="70" y="70" width="8" height="8" fill="#996633"/>
</svg>
