<svg width="40" height="40" viewBox="0 0 40 40" fill="none" xmlns="http://www.w3.org/2000/svg">
<rect width="4.10256" height="4.10256" fill="black"/>
<rect x="5.12817" width="4.10256" height="4.10256" fill="white"/>
<rect x="10.2563" width="4.10256" height="4.10256" fill="white"/>
<rect x="15.3845" width="4.10256" height="4.10256" fill="white"/>
<rect x="20.5129" width="4.10256" height="4.10256" fill="white"/>
<rect x="25.6411" width="4.10256" height="4.10256" fill="white"/>
<rect x="30.7693" width="4.10256" height="4.10256" fill="white"/>
<rect x="35.8975" width="4.10256" height="4.10256" fill="black"/>
<rect y="5.12823" width="4.10256" height="4.10256" fill="white"/>
<rect x="5.12817" y="5.12823" width="4.10256" height="4.10256" fill="black"/>
<rect x="10.2563" y="5.12823" width="4.10256" height="4.10256" fill="white"/>
<rect x="15.3845" y="5.12823" width="4.10256" height="4.10256" fill="white"/>
<rect x="20.5129" y="5.12823" width="4.10256" height="4.10256" fill="white"/>
<rect x="25.6411" y="5.12823" width="4.10256" height="4.10256" fill="white"/>
<rect x="30.7693" y="5.12823" width="4.10256" height="4.10256" fill="black"/>
<rect x="35.8975" y="5.12823" width="4.10256" height="4.10256" fill="white"/>
<rect y="10.2564" width="4.10256" height="4.10256" fill="white"/>
<rect x="5.12817" y="10.2564" width="4.10256" height="4.10256" fill="white"/>
<rect x="10.2563" y="10.2564" width="4.10256" height="4.10256" fill="black"/>
<rect x="15.3845" y="10.2564" width="4.10256" height="4.10256" fill="white"/>
<rect x="20.5129" y="10.2564" width="4.10256" height="4.10256" fill="white"/>
<rect x="25.6411" y="10.2564" width="4.10256" height="4.10256" fill="black"/>
<rect x="30.7693" y="10.2564" width="4.10256" height="4.10256" fill="white"/>
<rect x="35.8975" y="10.2564" width="4.10256" height="4.10256" fill="white"/>
<rect y="15.3846" width="4.10256" height="4.10256" fill="white"/>
<rect x="5.12817" y="15.3846" width="4.10256" height="4.10256" fill="white"/>
<rect x="10.2563" y="15.3846" width="4.10256" height="4.10256" fill="white"/>
<rect x="15.3845" y="15.3846" width="4.10256" height="4.10256" fill="black"/>
<rect x="20.5129" y="15.3846" width="4.10256" height="4.10256" fill="black"/>
<rect x="25.6411" y="15.3846" width="4.10256" height="4.10256" fill="white"/>
<rect x="30.7693" y="15.3846" width="4.10256" height="4.10256" fill="white"/>
<rect x="35.8975" y="15.3846" width="4.10256" height="4.10256" fill="white"/>
<rect y="20.5128" width="4.10256" height="4.10256" fill="white"/>
<rect x="5.12817" y="20.5128" width="4.10256" height="4.10256" fill="white"/>
<rect x="10.2563" y="20.5128" width="4.10256" height="4.10256" fill="white"/>
<rect x="15.3845" y="20.5128" width="4.10256" height="4.10256" fill="black"/>
<rect x="20.5129" y="20.5128" width="4.10256" height="4.10256" fill="black"/>
<rect x="25.6411" y="20.5128" width="4.10256" height="4.10256" fill="white"/>
<rect x="30.7693" y="20.5128" width="4.10256" height="4.10256" fill="white"/>
<rect x="35.8975" y="20.5128" width="4.10256" height="4.10256" fill="white"/>
<rect y="25.6411" width="4.10256" height="4.10256" fill="white"/>
<rect x="5.12817" y="25.6411" width="4.10256" height="4.10256" fill="white"/>
<rect x="10.2563" y="25.6411" width="4.10256" height="4.10256" fill="black"/>
<rect x="15.3845" y="25.6411" width="4.10256" height="4.10256" fill="white"/>
<rect x="20.5129" y="25.6411" width="4.10256" height="4.10256" fill="white"/>
<rect x="25.6411" y="25.6411" width="4.10256" height="4.10256" fill="black"/>
<rect x="30.7693" y="25.6411" width="4.10256" height="4.10256" fill="white"/>
<rect x="35.8975" y="25.6411" width="4.10256" height="4.10256" fill="white"/>
<rect y="30.7692" width="4.10256" height="4.10256" fill="white"/>
<rect x="5.12817" y="30.7692" width="4.10256" height="4.10256" fill="black"/>
<rect x="10.2563" y="30.7692" width="4.10256" height="4.10256" fill="white"/>
<rect x="15.3845" y="30.7692" width="4.10256" height="4.10256" fill="white"/>
<rect x="20.5129" y="30.7692" width="4.10256" height="4.10256" fill="white"/>
<rect x="25.6411" y="30.7692" width="4.10256" height="4.10256" fill="white"/>
<rect x="30.7693" y="30.7692" width="4.10256" height="4.10256" fill="black"/>
<rect x="35.8975" y="30.7692" width="4.10256" height="4.10256" fill="white"/>
<rect y="35.8975" width="4.10256" height="4.10256" fill="black"/>
<rect x="5.12817" y="35.8975" width="4.10256" height="4.10256" fill="white"/>
<rect x="10.2563" y="35.8975" width="4.10256" height="4.10256" fill="white"/>
<rect x="15.3845" y="35.8975" width="4.10256" height="4.10256" fill="white"/>
<rect x="20.5129" y="35.8975" width="4.10256" height="4.10256" fill="white"/>
<rect x="25.6411" y="35.8975" width="4.10256" height="4.10256" fill="white"/>
<rect x="30.7693" y="35.8975" width="4.10256" height="4.10256" fill="white"/>
<rect x="35.8975" y="35.8975" width="4.10256" height="4.10256" fill="black"/>
</svg>
