<svg width="128" height="128" viewBox="0 0 128 128" fill="none" xmlns="http://www.w3.org/2000/svg">
<rect width="128" height="128" fill="black"/>
<rect width="13.1282" height="13.1282" fill="white"/>
<rect x="16.4102" width="13.1282" height="13.1282" fill="#EE352E"/>
<rect x="32.8206" width="13.1282" height="13.1282" fill="white"/>
<rect x="49.2307" width="13.1282" height="13.1282" fill="white"/>
<rect x="65.6411" width="13.1282" height="13.1282" fill="white"/>
<rect x="82.0513" width="13.1282" height="13.1282" fill="white"/>
<rect x="98.4614" width="13.1282" height="13.1282" fill="#EE352E"/>
<rect x="114.872" width="13.1282" height="13.1282" fill="white"/>
<rect y="16.4103" width="13.1282" height="13.1282" fill="#EE352E"/>
<rect x="16.4102" y="16.4103" width="13.1282" height="13.1282" fill="#EE352E"/>
<rect x="32.8206" y="16.4103" width="13.1282" height="13.1282" fill="#EE352E"/>
<rect x="49.2307" y="16.4103" width="13.1282" height="13.1282" fill="white"/>
<rect x="65.6411" y="16.4103" width="13.1282" height="13.1282" fill="white"/>
<rect x="82.0513" y="16.4103" width="13.1282" height="13.1282" fill="#EE352E"/>
<rect x="98.4614" y="16.4103" width="13.1282" height="13.1282" fill="#EE352E"/>
<rect x="114.872" y="16.4103" width="13.1282" height="13.1282" fill="#EE352E"/>
<rect y="32.8205" width="13.1282" height="13.1282" fill="#EE352E"/>
<rect x="16.4102" y="32.8205" width="13.1282" height="13.1282" fill="#EE352E"/>
<rect x="32.8206" y="32.8205" width="13.1282" height="13.1282" fill="#EE352E"/>
<rect x="49.2307" y="32.8205" width="13.1282" height="13.1282" fill="#EE352E"/>
<rect x="65.6411" y="32.8205" width="13.1282" height="13.1282" fill="#EE352E"/>
<rect x="82.0513" y="32.8205" width="13.1282" height="13.1282" fill="#EE352E"/>
<rect x="98.4614" y="32.8205" width="13.1282" height="13.1282" fill="#EE352E"/>
<rect x="114.872" y="32.8205" width="13.1282" height="13.1282" fill="#EE352E"/>
<rect y="49.2308" width="13.1282" height="13.1282" fill="#EE352E"/>
<rect x="16.4102" y="49.2308" width="13.1282" height="13.1282" fill="#EE352E"/>
<rect x="32.8206" y="49.2308" width="13.1282" height="13.1282" fill="#EE352E"/>
<rect x="49.2307" y="49.2308" width="13.1282" height="13.1282" fill="#EE352E"/>
<rect x="65.6411" y="49.2308" width="13.1282" height="13.1282" fill="#EE352E"/>
<rect x="82.0513" y="49.2308" width="13.1282" height="13.1282" fill="#EE352E"/>
<rect x="98.4614" y="49.2308" width="13.1282" height="13.1282" fill="#EE352E"/>
<rect x="114.872" y="49.2308" width="13.1282" height="13.1282" fill="#EE352E"/>
<rect y="65.6411" width="13.1282" height="13.1282" fill="#EE352E"/>
<rect x="16.4102" y="65.6411" width="13.1282" height="13.1282" fill="#EE352E"/>
<rect x="32.8206" y="65.6411" width="13.1282" height="13.1282" fill="#EE352E"/>
<rect x="49.2307" y="65.6411" width="13.1282" height="13.1282" fill="#EE352E"/>
<rect x="65.6411" y="65.6411" width="13.1282" height="13.1282" fill="#EE352E"/>
<rect x="82.0513" y="65.6411" width="13.1282" height="13.1282" fill="#EE352E"/>
<rect x="98.4614" y="65.6411" width="13.1282" height="13.1282" fill="#EE352E"/>
<rect x="114.872" y="65.6411" width="13.1282" height="13.1282" fill="#EE352E"/>
<rect y="82.0513" width="13.1282" height="13.1282" fill="white"/>
<rect x="16.4102" y="82.0513" width="13.1282" height="13.1282" fill="#EE352E"/>
<rect x="32.8206" y="82.0513" width="13.1282" height="13.1282" fill="#EE352E"/>
<rect x="49.2307" y="82.0513" width="13.1282" height="13.1282" fill="#EE352E"/>
<rect x="65.6411" y="82.0513" width="13.1282" height="13.1282" fill="#EE352E"/>
<rect x="82.0513" y="82.0513" width="13.1282" height="13.1282" fill="#EE352E"/>
<rect x="98.4614" y="82.0513" width="13.1282" height="13.1282" fill="#EE352E"/>
<rect x="114.872" y="82.0513" width="13.1282" height="13.1282" fill="white"/>
<rect y="98.4615" width="13.1282" height="13.1282" fill="white"/>
<rect x="16.4102" y="98.4615" width="13.1282" height="13.1282" fill="white"/>
<rect x="32.8206" y="98.4615" width="13.1282" height="13.1282" fill="#EE352E"/>
<rect x="49.2307" y="98.4615" width="13.1282" height="13.1282" fill="#EE352E"/>
<rect x="65.6411" y="98.4615" width="13.1282" height="13.1282" fill="#EE352E"/>
<rect x="82.0513" y="98.4615" width="13.1282" height="13.1282" fill="#EE352E"/>
<rect x="98.4614" y="98.4615" width="13.1282" height="13.1282" fill="white"/>
<rect x="114.872" y="98.4615" width="13.1282" height="13.1282" fill="white"/>
<rect y="114.872" width="13.1282" height="13.1282" fill="white"/>
<rect x="16.4102" y="114.872" width="13.1282" height="13.1282" fill="white"/>
<rect x="32.8206" y="114.872" width="13.1282" height="13.1282" fill="white"/>
<rect x="49.2307" y="114.872" width="13.1282" height="13.1282" fill="#EE352E"/>
<rect x="65.6411" y="114.872" width="13.1282" height="13.1282" fill="#EE352E"/>
<rect x="82.0513" y="114.872" width="13.1282" height="13.1282" fill="white"/>
<rect x="98.4614" y="114.872" width="13.1282" height="13.1282" fill="white"/>
<rect x="114.872" y="114.872" width="13.1282" height="13.1282" fill="white"/>
</svg>
